<?xml version="1.0" standalone="no"?><!DOCTYPE svg PUBLIC "-//W3C//DTD SVG 1.1//EN" "http://www.w3.org/Graphics/SVG/1.1/DTD/svg11.dtd"><svg t="1614666734296" class="icon" viewBox="0 0 1024 1024" version="1.1" xmlns="http://www.w3.org/2000/svg" p-id="1352" xmlns:xlink="http://www.w3.org/1999/xlink" width="32" height="32"><defs><style type="text/css"></style></defs><path d="M956.479 383.765l-288.643-41.988L538.82 80.173c-4.862-9.807-15.003-16.562-26.71-16.562-11.794 0-21.835 6.755-26.732 16.562L356.291 341.777 67.603 383.765c-10.828 1.563-20.388 9.08-24.004 20.203-3.693 11.185-0.32 22.887 7.5 30.56l208.82 203.54-49.201 287.542c-1.833 10.79 2.32 22.22 11.816 29.064 9.486 6.938 21.621 7.4 31.334 2.233l258.21-135.69 258.085 135.69c9.755 5.101 21.968 4.646 31.345-2.233 9.412-6.845 13.703-18.273 11.814-29.064l-49.307-287.543 208.862-203.54c7.853-7.672 11.191-19.375 7.553-30.56-3.487-11.123-13.113-18.638-23.951-20.202z m0 0" p-id="1353"></path></svg>