<?xml version="1.0" standalone="no"?><!DOCTYPE svg PUBLIC "-//W3C//DTD SVG 1.1//EN" "http://www.w3.org/Graphics/SVG/1.1/DTD/svg11.dtd"><svg t="1611128856958" class="icon" viewBox="0 0 1024 1024" version="1.1" xmlns="http://www.w3.org/2000/svg" p-id="5799" xmlns:xlink="http://www.w3.org/1999/xlink" width="32" height="32"><defs><style type="text/css"></style></defs><path d="M955.714775 42.768059 68.285221 42.768059c-37.70167 0-68.263733 30.010501-68.263733 67.034742l0 703.843306c0 37.024242 30.563086 67.034742 68.263733 67.034742l339.694679 0 104.020098 100.550067 102.287641-100.550067 341.427136 0c37.70167 0 68.263733-30.010501 68.263733-67.034742L1023.978509 109.802802C1023.978509 72.77856 993.415422 42.768059 955.714775 42.768059zM255.957531 528.97051c-37.743626 0-68.343551-30.05348-68.343551-67.128887 0-37.072337 30.599925-67.125817 68.343551-67.125817s68.343551 30.05348 68.343551 67.125817C324.301082 498.91703 293.70218 528.97051 255.957531 528.97051zM512.084932 528.97051c-37.743626 0-68.343551-30.05348-68.343551-67.128887 0-37.072337 30.599925-67.125817 68.343551-67.125817s68.343551 30.05348 68.343551 67.125817C580.428483 498.91703 549.828558 528.97051 512.084932 528.97051zM784.818547 528.97051c-37.743626 0-68.343551-30.05348-68.343551-67.128887 0-37.072337 30.599925-67.125817 68.343551-67.125817s68.343551 30.05348 68.343551 67.125817C853.162098 498.91703 822.563196 528.97051 784.818547 528.97051z" p-id="5800"></path></svg>