<?xml version="1.0" standalone="no"?><!DOCTYPE svg PUBLIC "-//W3C//DTD SVG 1.1//EN" "http://www.w3.org/Graphics/SVG/1.1/DTD/svg11.dtd"><svg t="1610438628199" class="icon" viewBox="0 0 1024 1024" version="1.1" xmlns="http://www.w3.org/2000/svg" p-id="3980" xmlns:xlink="http://www.w3.org/1999/xlink" width="32" height="32"><defs><style type="text/css"></style></defs><path d="M921.306092 511.810042a339.201583 339.201583 0 0 0-2.659411-44.323522 49.325748 49.325748 0 0 1 22.351719-46.033144l55.720999-32.166213a30.963146 30.963146 0 0 0 11.334158-42.233985l-105.679941-182.866188a31.089785 31.089785 0 0 0-42.297304-11.334158l-55.65768 32.102894a49.832303 49.832303 0 0 1-51.225327-3.545882 352.878556 352.878556 0 0 0-36.471927-23.998021 364.782587 364.782587 0 0 0-39.89117-19.945585 49.832303 49.832303 0 0 1-28.620331-42.613901V30.899827A31.026465 31.026465 0 0 0 617.31005 0H405.950168a31.026465 31.026465 0 0 0-30.899826 30.899827v64.332426a49.832303 49.832303 0 0 1-28.620332 42.613901 366.492209 366.492209 0 0 0-39.82785 19.882265 356.17116 356.17116 0 0 0-36.535247 24.061341 49.832303 49.832303 0 0 1-51.225327 3.545882l-55.65768-32.102894a31.026465 31.026465 0 0 0-42.233985 11.334158L15.3333 347.496414a31.026465 31.026465 0 0 0 11.334158 42.233984l55.657679 32.102894a49.325748 49.325748 0 0 1 22.35172 46.096463 362.503092 362.503092 0 0 0 0 88.14049 49.325748 49.325748 0 0 1-22.35172 46.033144l-55.657679 32.102893a30.963146 30.963146 0 0 0-11.334158 42.233985l105.67994 182.929508a31.026465 31.026465 0 0 0 42.233985 11.334158l55.65768-32.102894a49.705664 49.705664 0 0 1 51.162008 3.545882 346.103389 346.103389 0 0 0 34.572348 22.921592 367.252041 367.252041 0 0 0 41.790749 20.958695 49.832303 49.832303 0 0 1 28.620332 42.6139v64.332427a31.026465 31.026465 0 0 0 30.899826 30.899826h211.296562a31.026465 31.026465 0 0 0 30.899827-30.899826v-64.522385a49.768983 49.768983 0 0 1 28.620332-42.6139 362.756369 362.756369 0 0 0 39.574573-19.755627 353.511749 353.511749 0 0 0 36.725204-24.18798 49.832303 49.832303 0 0 1 51.225328-3.545881l55.720999 32.166213a31.026465 31.026465 0 0 0 42.233985-11.334158l105.616621-182.929508a30.963146 30.963146 0 0 0-11.334158-42.233984l-55.65768-32.102894a49.325748 49.325748 0 0 1-22.351719-46.033144 339.961415 339.961415 0 0 0 2.78605-44.070245z m-409.739302 170.64556a170.64556 170.64556 0 1 1 170.962157-170.64556 170.962157 170.962157 0 0 1-170.962157 170.64556z" p-id="3981"></path></svg>