<?xml version="1.0" standalone="no"?><!DOCTYPE svg PUBLIC "-//W3C//DTD SVG 1.1//EN" "http://www.w3.org/Graphics/SVG/1.1/DTD/svg11.dtd"><svg t="1614666728038" class="icon" viewBox="0 0 1024 1024" version="1.1" xmlns="http://www.w3.org/2000/svg" p-id="1217" xmlns:xlink="http://www.w3.org/1999/xlink" width="32" height="32"><defs><style type="text/css"></style></defs><path d="M252.696 958.945c-10.15 0-19.869-3.176-28.11-9.186-14.833-10.728-22.133-28.663-19.052-46.822l45.165-263.944-191.656-186.81C45.826 439.24 41.21 420.37 46.957 402.906c5.666-17.406 20.498-29.89 38.686-32.511l264.944-38.536L469.065 91.757c8.23-16.501 24.708-26.704 43.042-26.704 18.38 0 34.858 10.222 43.006 26.677l118.423 240.13 264.918 38.535c18.044 2.598 33.228 15.431 38.672 32.7 5.622 17.456 0.96 36.253-12.182 49.08L773.24 638.991 818.496 902.9c3.11 17.761-4.363 36.18-19.049 46.858-8.14 5.966-17.87 9.142-28.077 9.142h-0.002a48.533 48.533 0 0 1-22.387-5.498L512.075 828.844 275.09 953.382c-6.825 3.627-14.593 5.563-22.394 5.563z m259.412-854.718c-3.435 0-6.408 1.847-7.951 4.94L376.606 367.66 91.259 409.164c-2.62 0.377-5.834 2.13-7.071 5.93-1.269 3.856 0.325 7.203 2.233 9.072l206.364 201.143-48.633 284.205c-0.44 2.594 0.22 6.213 3.408 8.511l0.102 0.074c1.89 1.38 3.781 1.67 5.035 1.67a8.778 8.778 0 0 0 4.095-1.024l255.29-134.16 255.092 134.12a9.128 9.128 0 0 0 4.198 1.02c1.269 0 3.166-0.28 4.982-1.61 2.739-1.99 4.106-5.32 3.544-8.527l-48.75-284.28 206.447-201.18c1.895-1.85 3.485-5.206 2.239-9.05l-0.063-0.192c-1.145-3.653-4.447-5.366-6.928-5.722l-285.33-41.507-127.517-258.574c-1.458-2.937-4.558-4.856-7.888-4.856z" p-id="1218"></path></svg>